<svg xmlns="http://www.w3.org/2000/svg" width="23" height="20" viewBox="0 0 430.668 430.668">
  <path d="M424.908 118.646c-4.75-5.725-11.802-9.037-19.24-9.037H124.202l-2.73-14.19C119.73 86.36 113.14 79 104.33 76.268l-71.917-22.31C19.227 49.87 5.22 57.244 1.13 70.432s3.283 27.194 16.47 31.285l57.605 17.868 43.904 192.63c1.53 8.148 6.91 14.746 14.043 18.062-.212 1.712-.333 3.452-.333 5.22 0 23.35 18.995 42.343 42.342 42.343 23.347 0 42.342-18.995 42.342-42.342 0-.975-.045-1.938-.11-2.896h66.845c-.066.958-.11 1.922-.11 2.896 0 23.348 18.994 42.342 42.34 42.342 23.35 0 42.344-18.995 42.344-42.342 0-1.044-.052-2.076-.125-3.1 10.696-1.297 19.52-9.366 21.55-20.184l40-172.99c1.37-7.31-.583-14.85-5.332-20.576zm-249.746 237.47c-11.37 0-20.622-9.25-20.622-20.622s9.25-20.622 20.622-20.622 20.622 9.25 20.622 20.622-9.25 20.622-20.622 20.622zm151.308 0c-11.37 0-20.622-9.25-20.622-20.622s9.25-20.622 20.622-20.622 20.622 9.25 20.622 20.622-9.252 20.622-20.622 20.622zM341 270.333H169.668c-8.284 0-15-6.716-15-15s6.716-15 15-15H341c8.285 0 15 6.716 15 15s-6.715 15-15 15zm0-80H169.668c-8.284 0-15-6.716-15-15s6.716-15 15-15H341c8.285 0 15 6.716 15 15s-6.715 15-15 15z"/>
</svg>
