<svg xmlns="http://www.w3.org/2000/svg" viewBox="0 0 90 90" width="15" height="24">
  <path d="M65.45 6.17C59.747 2.056 52.587 0 43.97 0c-6.558 0-12.09 1.45-16.587 4.34C20.25 8.87 16.457 16.562 16 27.412h16.53c0-3.158.923-6.203 2.767-9.137 1.846-2.932 4.975-4.396 9.39-4.396 4.487 0 7.58 1.19 9.27 3.567 1.693 2.38 2.54 5.018 2.54 7.91 0 2.513-1.263 4.816-2.782 6.91-.836 1.22-1.938 2.342-3.307 3.37 0 0-8.965 5.75-12.9 10.367-2.283 2.68-2.488 6.692-2.69 12.45-.013.408.144 1.254 1.577 1.254h12.857s1.54-.95 1.56-1.362c.09-2.098.325-3.167.706-4.377.723-2.287 2.688-4.284 4.893-5.998l4.552-3.14c4.107-3.2 7.385-5.827 8.83-7.884C72.264 33.562 74 29.393 74 24.443c0-8.07-2.852-14.162-8.55-18.274zM43.704 69.616c-5.697-.17-10.398 3.77-10.578 9.95-.178 6.18 4.293 10.26 9.99 10.427 5.95.177 10.523-3.637 10.7-9.814.18-6.18-4.163-10.387-10.112-10.563z" fill="#030104"/>
</svg>
