<svg xmlns="http://www.w3.org/2000/svg" viewBox="0 0 485 485" width="23" height="23">
  <path d="M144.753 275.964c12.162 16.477 26.132 31.05 44.184 41.356 20.44 11.683 42.45 15.21 65.66 14.134 10.846-.52 14.107-3.347 14.606-14.154.336-7.403 1.192-14.786 4.835-21.435 3.582-6.527 9.018-7.76 15.285-3.7 3.123 2.05 5.752 4.617 8.24 7.363 6.108 6.67 12.023 13.573 18.35 20.023 7.96 8.102 17.395 12.876 29.236 11.903l45.874.02c7.383-.5 11.224-9.553 6.985-17.817-2.987-5.768-6.905-10.903-11.047-15.88-9.375-11.266-20.42-20.86-30.865-31.05-9.416-9.19-10.012-14.526-2.45-25.134 8.278-11.586 17.154-22.708 25.494-34.233 7.78-10.767 15.764-21.517 19.84-34.392 2.61-8.218.3-11.84-8.096-13.293-1.452-.24-2.965-.24-4.438-.24l-49.916-.06c-6.15-.097-9.533 2.588-11.703 8.04-2.946 7.367-5.972 14.73-9.478 21.817-7.917 16.12-16.778 31.7-29.194 44.877-2.746 2.903-5.793 6.587-10.368 5.074-5.71-2.09-7.403-11.52-7.306-14.704l-.04-57.62c-1.112-8.217-2.946-11.9-11.123-13.496h-51.846c-6.904 0-10.39 2.69-14.093 7.006-2.108 2.512-2.766 4.122 1.616 4.958 8.595 1.63 13.47 7.204 14.745 15.825 2.054 13.792 1.912 27.64.72 41.473-.337 4.04-1.035 8.06-2.63 11.84-2.507 5.952-6.567 7.15-11.88 3.486-4.795-3.302-8.178-7.958-11.505-12.636-12.437-17.578-22.347-36.52-30.448-56.427-2.33-5.753-6.37-9.233-12.458-9.335-14.97-.24-29.954-.275-44.944.02-8.993.158-11.683 4.54-8 12.717 16.3 36.28 34.455 71.548 58.157 103.672z"/>
  <path d="M0 0v485h485V0H0zm455 455H30V30h425v425z"/>
</svg>
