<svg xmlns="http://www.w3.org/2000/svg" viewBox="0 0 485 485" width="23" height="23"><path d="M177.506 400c70.782 0 107.83-39.043 107.83-77.63.01-28.528-16.715-42.62-34.473-57.584l-14.98-11.643c-4.637-3.843-10.403-8.61-10.403-17.458 0-8.69 5.767-14.424 10.85-19.49l.54-.542c16.17-12.74 34.518-27.193 34.518-58.44 0-31.42-19.633-47.657-29.088-55.457h24.94c.3 0 .606-.094.858-.252l21.475-13.5a1.631 1.631 0 0 0 .7-1.83A1.632 1.632 0 0 0 288.719 85h-75.14c-33.47 0-56.646 7.34-77.504 24.574-16.392 14.156-26.193 34.712-26.193 55.012 0 31.276 23.842 64.524 68.034 64.524 4.258 0 8.963-.443 13.107-.826l-.602 1.476c-1.78 4.258-3.465 8.275-3.465 14.534 0 12.2 5.876 19.73 11.582 27.006l.715.92-1.273.097c-18.25 1.24-52.215 3.574-77.025 18.824-29.308 17.426-31.58 42.76-31.58 50.1 0 29.25 27.24 58.76 88.13 58.76zm19.698-182.406c-36.22 0-51.247-47.607-51.247-73.104 0-12.96 2.94-22.907 9.007-30.418 6.576-8.23 17.856-13.55 28.718-13.55 33.248 0 51.63 44.7 51.63 75.58 0 4.877 0 19.696-10.233 29.992-6.892 6.877-18.09 11.5-27.876 11.5zm-36.52 72.75c18.697-6.286 42.84-6.607 43.08-6.607 4.083 0 6.15 0 9.402.415 30.198 21.492 44.72 32.772 44.72 54.264 0 27.368-23.098 44.366-60.287 44.366-43.143 0-72.134-20.142-72.134-50.15 0-19.583 11.85-33.816 35.217-42.287zm134.069-37.708h39.38v39.698c0 .89.73 1.62 1.62 1.62h17.026c.906 0 1.638-.73 1.638-1.62v-39.698h39.584c.89 0 1.623-.732 1.623-1.635v-17.25a1.61 1.61 0 0 0-1.623-1.622h-39.584V192.67c0-.89-.732-1.62-1.64-1.62h-17.026c-.89 0-1.618.73-1.618 1.62v39.458h-39.38a1.63 1.63 0 0 0-1.636 1.623V251c0 .904.728 1.636 1.635 1.636z"/><path d="M0 0v485h485V0H0zm455 455H30V30h425v425z"/></svg>