<svg xmlns="http://www.w3.org/2000/svg" viewBox="0 0 339.921 339.921" width="16" height="16"><path d="M335.165 292.07l-81.385-84.076c-5.836-6.032-13.13-8.447-16.29-5.363-3.17 3.063-10.47.654-16.306-5.378l-1.164-1.207c36.425-47.907 32.89-116.5-10.85-160.24-47.74-47.74-125.143-47.74-172.876 0-47.74 47.74-47.74 125.13 0 172.87 44.486 44.492 114.7 47.472 162.704 9.045l.51.533c5.826 6.032 7.996 13.402 4.815 16.47-3.166 3.067-1.012 10.442 4.83 16.463l81.34 84.11c5.837 6.016 15.453 6.195 21.49.354l22.83-22.088c6.014-5.827 6.177-15.437.352-21.49zm-152.86-110.26c-32.85 32.857-86.31 32.857-119.158.01-32.852-32.85-32.847-86.317 0-119.163 32.847-32.852 86.307-32.847 119.148.005 32.857 32.847 32.857 86.302.01 119.148z" fill="#FFF"/></svg>