<svg xmlns="http://www.w3.org/2000/svg" viewBox="0 0 485 485" width="23" height="23"><path d="M124.536 347.92c39.056 4.353 78.587 4.382 117.948 4.353 39.377.03 78.91 0 117.952-4.353 16.494-1.84 30.195-14.21 34.057-30.96 5.49-23.846 5.507-49.9 5.507-74.462 0-24.562.05-50.603-5.446-74.45-3.857-16.766-17.56-29.118-34.057-30.96-39.056-4.364-78.59-4.38-117.948-4.364-39.362-.016-78.91 0-117.97 4.365-16.477 1.84-30.183 14.192-34.024 30.958-5.49 23.848-5.556 49.89-5.556 74.45 0 24.563 0 50.616 5.495 74.463 3.84 16.75 17.543 29.12 34.04 30.96zm77.32-160.69c33.373 17.416 66.54 34.707 100.137 52.237-33.5 17.368-66.67 34.577-100.138 51.932V187.23z"/><path d="M0 0v485h485V0H0zm455 455H30V30h425v425z"/></svg>